<?xml version="1.0" standalone="no"?>
<!DOCTYPE svg PUBLIC "-//W3C//DTD SVG 1.0//EN" "http://www.w3.org/TR/2001/REC-SVG-20010904/DTD/svg10.dtd">
<svg xmlns="http://www.w3.org/2000/svg" xmlns:xlink="http://www.w3.org/1999/xlink" id="body_1" width="133" height="133">

<g transform="matrix(0.19000001 0 0 0.19000001 0 0)">
	<g>
        <path d="M541.8 348.06L281.93 88.20001C 276.8128 83.08281 269.547 80.36801 260.938 80.36801C 240.55899 80.36801 213.04 95.22701 189.137 119.138016C 153.86699 154.40802 140.55899 194.30202 158.196 211.93903L158.196 211.93903L418.04602 471.799C 423.30383 477.05682 430.53003 479.5607 439.019 479.5607C 459.039 479.5607 486.09302 465.6227 510.855 440.8577C 526.578 425.1427 538.687 407.4947 544.953 391.1937C 552.1327 372.5807 551.0038 357.2597 541.8007 348.0567L541.8007 348.0567L541.8 348.06zM201.5 131.51C 224.738 108.271996 248.094 97.86499 260.93 97.86499C 264.8519 97.86499 267.75418 98.77515 269.54718 100.56809C 273.387 104.40789 273.09018 113.798096 268.75812 125.05209C 263.35193 139.1301 252.64111 154.59909 238.61311 168.6261C 208.25812 198.9811 178.20311 207.22409 170.55411 199.5671C 162.9994 191.9968 171.28458 161.72308 201.49911 131.50809zM528.64 384.91998C 523.222 398.99 512.515 414.46698 498.49503 428.494C 468.29202 458.697 438.02203 467.00198 430.42902 459.435L430.42902 459.435L189.51901 218.525C 208.324 214.65779 230.89801 201.095 250.988 181.00499C 266.711 165.29 278.832 147.642 285.09702 131.333C 286.6712 127.23919 287.78452 123.325195 288.55402 119.57099L288.55402 119.57099L529.414 360.431C 533.2656 364.2826 532.9687 373.661 528.63666 384.915zM436.609 416.119C 440.0309 419.5409 440.0309 425.07208 436.609 428.49C 434.902 430.197 432.6637 431.0525 430.4215 431.0525C 428.1832 431.0525 425.941 430.1931 424.234 428.49L424.234 428.49L325.254 329.50598C 321.8321 326.08408 321.8321 320.5529 325.254 317.13498C 328.6759 313.71307 334.2071 313.71307 337.625 317.13498zM312.879 292.379C 316.3009 295.8009 316.3087 301.3399 312.8868 304.762C 309.4649 308.1839 303.9259 308.1761 300.5038 304.762C 297.08972 301.3479 297.0819 295.8089 300.5038 292.391C 303.92572 288.9691 309.46472 288.9691 312.8788 292.37927z" stroke="none" fill="#000000" fill-rule="nonzero" />
        <path transform="matrix(1 0 0 1 70 691.25)"  d="M29.312 -1.75C 27.8003 -0.96875 26.2222 -0.37890005 24.5776 0.015599966C 22.9409 0.42184997 21.2378 0.62498 19.4682 0.62498C 14.155701 0.62498 9.940901 -0.85942006 6.827201 -3.8281202C 3.721701 -6.7969203 2.171001 -10.82812 2.171001 -15.92212C 2.171001 -21.01612 3.7218008 -25.04712 6.827201 -28.01612C 9.940501 -30.98492 14.155301 -32.469223 19.4682 -32.469223C 21.237701 -32.469223 22.9409 -32.270004 24.5776 -31.875473C 26.222101 -31.477034 27.8003 -30.883284 29.312 -30.094273L29.312 -30.094273L29.312 -23.500473C 27.7808 -24.539574 26.2729 -25.301273 24.7964 -25.781673C 23.3159 -26.269953 21.7573 -26.516054 20.1245 -26.516054C 17.187 -26.516054 14.878401 -25.570744 13.2026005 -23.687954C 11.522901 -21.812954 10.687 -19.223154 10.687 -15.922354C 10.687 -12.629354 11.522941 -10.039554 13.2026005 -8.156754C 14.878401 -6.2817535 17.187 -5.3442535 20.1245 -5.3442535C 21.7573 -5.3442535 23.3159 -5.5825334 24.7964 -6.0630035C 26.273 -6.5512834 27.7808 -7.3169036 29.312 -8.359903L29.312 -8.359903L29.312 -1.75z" stroke="none" fill="#000000" fill-rule="nonzero" />
        <path transform="matrix(1 0 0 1 70 691.25)"  d="M29.312 -1.75C 27.8003 -0.96875 26.2222 -0.37890005 24.5776 0.015599966C 22.9409 0.42184997 21.2378 0.62498 19.4682 0.62498C 14.155701 0.62498 9.940901 -0.85942006 6.827201 -3.8281202C 3.721701 -6.7969203 2.171001 -10.82812 2.171001 -15.92212C 2.171001 -21.01612 3.7218008 -25.04712 6.827201 -28.01612C 9.940501 -30.98492 14.155301 -32.469223 19.4682 -32.469223C 21.237701 -32.469223 22.9409 -32.270004 24.5776 -31.875473C 26.222101 -31.477034 27.8003 -30.883284 29.312 -30.094273L29.312 -30.094273L29.312 -23.500473C 27.7808 -24.539574 26.2729 -25.301273 24.7964 -25.781673C 23.3159 -26.269953 21.7573 -26.516054 20.1245 -26.516054C 17.187 -26.516054 14.878401 -25.570744 13.2026005 -23.687954C 11.522901 -21.812954 10.687 -19.223154 10.687 -15.922354C 10.687 -12.629354 11.522941 -10.039554 13.2026005 -8.156754C 14.878401 -6.2817535 17.187 -5.3442535 20.1245 -5.3442535C 21.7573 -5.3442535 23.3159 -5.5825334 24.7964 -6.0630035C 26.273 -6.5512834 27.7808 -7.3169036 29.312 -8.359903L29.312 -8.359903L29.312 -1.75z" stroke="none" fill="#000000" fill-rule="nonzero" />
        <path transform="matrix(1 0 0 1 102.109375 691.25)"  d="M21.453 -17.406C 20.77331 -17.7185 20.101398 -17.94506 19.437399 -18.0935C 18.781149 -18.24975 18.1171 -18.32788 17.453 -18.32788C 15.4842 -18.32788 13.968599 -17.69507 12.906099 -16.43728C 11.851399 -15.175581 11.327999 -13.366981 11.327999 -11.015381L11.327999 -11.015381L11.327999 0.00061893463L3.6717992 0.00061893463L3.6717992 -23.921383L11.327999 -23.921383L11.327999 -19.999483C 12.304559 -21.561983 13.429599 -22.702583 14.702999 -23.421383C 15.9842 -24.140133 17.5155 -24.499483 19.296799 -24.499483C 19.546799 -24.499483 19.820238 -24.487764 20.124918 -24.468233C 20.425697 -24.444796 20.859299 -24.39792 21.421818 -24.327614L21.421818 -24.327614L21.453 -17.406z" stroke="none" fill="#000000" fill-rule="nonzero" />
        <path transform="matrix(1 0 0 1 102.109375 691.25)"  d="M21.453 -17.406C 20.77331 -17.7185 20.101398 -17.94506 19.437399 -18.0935C 18.781149 -18.24975 18.1171 -18.32788 17.453 -18.32788C 15.4842 -18.32788 13.968599 -17.69507 12.906099 -16.43728C 11.851399 -15.175581 11.327999 -13.366981 11.327999 -11.015381L11.327999 -11.015381L11.327999 0.00061893463L3.6717992 0.00061893463L3.6717992 -23.921383L11.327999 -23.921383L11.327999 -19.999483C 12.304559 -21.561983 13.429599 -22.702583 14.702999 -23.421383C 15.9842 -24.140133 17.5155 -24.499483 19.296799 -24.499483C 19.546799 -24.499483 19.820238 -24.487764 20.124918 -24.468233C 20.425697 -24.444796 20.859299 -24.39792 21.421818 -24.327614L21.421818 -24.327614L21.453 -17.406z" stroke="none" fill="#000000" fill-rule="nonzero" />
        <path transform="matrix(1 0 0 1 123.68359 691.25)"  d="M27.562 -12.031L27.562 -9.8435L9.671 -9.8435C 9.8585 -8.0505 10.50303 -6.7068005 11.6085 -5.8123C 12.7218 -4.9138603 14.280399 -4.4685 16.2804 -4.4685C 17.882 -4.4685 19.5304 -4.70288 21.2179 -5.1716204C 22.9054 -5.6481805 24.6398 -6.3747206 26.421 -7.34352L26.421 -7.34352L26.421 -1.45292C 24.616299 -0.76541996 22.8116 -0.24982 20.9991 0.093980074C 19.1866 0.44554007 17.378 0.6252301 15.5772 0.6252301C 11.241301 0.6252301 7.8740997 -0.47246993 5.4681997 -2.67167C 3.0697997 -4.8786697 1.8743997 -7.9685698 1.8743997 -11.93727C 1.8743997 -15.84347 3.0501995 -18.90997 5.4055996 -21.14037C 7.7689 -23.37867 11.014999 -24.49977 15.139999 -24.49977C 18.8978 -24.49977 21.9095 -23.36307 24.1712 -21.093569C 26.429 -18.83187 27.5618 -15.812368 27.5618 -12.031069L27.5618 -12.031069L27.562 -12.031zM19.7026 -14.562201C 19.7026 -16.019201 19.272911 -17.191101 18.4214 -18.0778C 17.57765 -18.97233 16.4722 -19.4216 15.1089 -19.4216C 13.6167 -19.4216 12.4097 -19.00363 11.4839 -18.1716C 10.56593 -17.33566 9.9917 -16.1325 9.7651005 -14.562201z" stroke="none" fill="#000000" fill-rule="nonzero" />
        <path transform="matrix(1 0 0 1 123.68359 691.25)"  d="M27.562 -12.031L27.562 -9.8435L9.671 -9.8435C 9.8585 -8.0505 10.50303 -6.7068005 11.6085 -5.8123C 12.7218 -4.9138603 14.280399 -4.4685 16.2804 -4.4685C 17.882 -4.4685 19.5304 -4.70288 21.2179 -5.1716204C 22.9054 -5.6481805 24.6398 -6.3747206 26.421 -7.34352L26.421 -7.34352L26.421 -1.45292C 24.616299 -0.76541996 22.8116 -0.24982 20.9991 0.093980074C 19.1866 0.44554007 17.378 0.6252301 15.5772 0.6252301C 11.241301 0.6252301 7.8740997 -0.47246993 5.4681997 -2.67167C 3.0697997 -4.8786697 1.8743997 -7.9685698 1.8743997 -11.93727C 1.8743997 -15.84347 3.0501995 -18.90997 5.4055996 -21.14037C 7.7689 -23.37867 11.014999 -24.49977 15.139999 -24.49977C 18.8978 -24.49977 21.9095 -23.36307 24.1712 -21.093569C 26.429 -18.83187 27.5618 -15.812368 27.5618 -12.031069L27.5618 -12.031069L27.562 -12.031zM19.7026 -14.562201C 19.7026 -16.019201 19.272911 -17.191101 18.4214 -18.0778C 17.57765 -18.97233 16.4722 -19.4216 15.1089 -19.4216C 13.6167 -19.4216 12.4097 -19.00363 11.4839 -18.1716C 10.56593 -17.33566 9.9917 -16.1325 9.7651005 -14.562201z" stroke="none" fill="#000000" fill-rule="nonzero" />
        <path transform="matrix(1 0 0 1 153.35547 691.25)"  d="M14.391 -10.766C 12.7972 -10.766 11.598 -10.492559 10.797199 -9.9535C 9.992509 -9.41053 9.594099 -8.6137 9.594099 -7.5628996C 9.594099 -6.5941496 9.914409 -5.8323994 10.562849 -5.2816997C 11.207379 -4.7387295 12.109749 -4.4691997 13.265949 -4.4691997C 14.703449 -4.4691997 15.910449 -4.9848194 16.89095 -6.0161C 17.879229 -7.0473 18.375349 -8.3364 18.375349 -9.8911L18.375349 -9.8911L18.375349 -10.7661L14.391 -10.766zM26.078999 -13.6566L26.078999 -0.00059986115L18.375898 -0.00059986115L18.375898 -3.5475C 17.344698 -2.0983 16.188398 -1.0396998 14.907099 -0.37559986C 13.625799 0.28850007 12.067299 0.62440014 10.235199 0.62440014C 7.7546988 0.62440014 5.739099 -0.098259866 4.188299 -1.5474999C 2.6452992 -2.9927998 1.8757992 -4.8677998 1.8757992 -7.1724997C 1.8757992 -9.985 2.836739 -12.0397 4.7663994 -13.344399C 6.7038994 -14.656899 9.735199 -15.313199 13.860199 -15.313199L13.860199 -15.313199L18.3758 -15.313199L18.3758 -15.922579C 18.3758 -17.12958 17.895329 -18.016378 16.9383 -18.57878C 15.989079 -19.14128 14.500799 -19.42253 12.4695 -19.42253C 10.8328 -19.42253 9.313299 -19.254559 7.9069996 -18.92253C 6.5007997 -18.598309 5.1881995 -18.11003 3.9694996 -17.45373L3.9694996 -17.45373L3.9694996 -23.28183C 5.6139994 -23.68808 7.2585993 -23.98886 8.907 -24.18808C 10.5632 -24.39511 12.2116995 -24.50058 13.8601 -24.50058C 18.1804 -24.50058 21.2976 -23.64511 23.2039 -21.93808C 25.118 -20.23888 26.0789 -17.47718 26.0789 -13.656879z" stroke="none" fill="#000000" fill-rule="nonzero" />
        <path transform="matrix(1 0 0 1 153.35547 691.25)"  d="M14.391 -10.766C 12.7972 -10.766 11.598 -10.492559 10.797199 -9.9535C 9.992509 -9.41053 9.594099 -8.6137 9.594099 -7.5628996C 9.594099 -6.5941496 9.914409 -5.8323994 10.562849 -5.2816997C 11.207379 -4.7387295 12.109749 -4.4691997 13.265949 -4.4691997C 14.703449 -4.4691997 15.910449 -4.9848194 16.89095 -6.0161C 17.879229 -7.0473 18.375349 -8.3364 18.375349 -9.8911L18.375349 -9.8911L18.375349 -10.7661L14.391 -10.766zM26.078999 -13.6566L26.078999 -0.00059986115L18.375898 -0.00059986115L18.375898 -3.5475C 17.344698 -2.0983 16.188398 -1.0396998 14.907099 -0.37559986C 13.625799 0.28850007 12.067299 0.62440014 10.235199 0.62440014C 7.7546988 0.62440014 5.739099 -0.098259866 4.188299 -1.5474999C 2.6452992 -2.9927998 1.8757992 -4.8677998 1.8757992 -7.1724997C 1.8757992 -9.985 2.836739 -12.0397 4.7663994 -13.344399C 6.7038994 -14.656899 9.735199 -15.313199 13.860199 -15.313199L13.860199 -15.313199L18.3758 -15.313199L18.3758 -15.922579C 18.3758 -17.12958 17.895329 -18.016378 16.9383 -18.57878C 15.989079 -19.14128 14.500799 -19.42253 12.4695 -19.42253C 10.8328 -19.42253 9.313299 -19.254559 7.9069996 -18.92253C 6.5007997 -18.598309 5.1881995 -18.11003 3.9694996 -17.45373L3.9694996 -17.45373L3.9694996 -23.28183C 5.6139994 -23.68808 7.2585993 -23.98886 8.907 -24.18808C 10.5632 -24.39511 12.2116995 -24.50058 13.8601 -24.50058C 18.1804 -24.50058 21.2976 -23.64511 23.2039 -21.93808C 25.118 -20.23888 26.0789 -17.47718 26.0789 -13.656879z" stroke="none" fill="#000000" fill-rule="nonzero" />
        <path transform="matrix(1 0 0 1 182.8789 691.25)"  d="M12.031 -30.719L12.031 -23.9221L19.906 -23.9221L19.906 -18.4533L12.031 -18.4533L12.031 -8.312301C 12.031 -7.195101 12.24975 -6.4412007 12.68725 -6.0467005C 13.12475 -5.6599803 13.99975 -5.4685802 15.31225 -5.4685802L15.31225 -5.4685802L19.24975 -5.4685802L19.24975 0.00021982193L12.68725 0.00021982193C 9.66385 0.00021982193 7.52315 -0.6286902 6.2653503 -1.8903801C 5.00365 -3.14818 4.37475 -5.28878 4.37475 -8.31228L4.37475 -8.31228L4.37475 -18.45328L0.5778501 -18.45328L0.5778501 -23.92208L4.37475 -23.92208L4.37475 -30.718979L12.031 -30.719z" stroke="none" fill="#000000" fill-rule="nonzero" />
        <path transform="matrix(1 0 0 1 182.8789 691.25)"  d="M12.031 -30.719L12.031 -23.9221L19.906 -23.9221L19.906 -18.4533L12.031 -18.4533L12.031 -8.312301C 12.031 -7.195101 12.24975 -6.4412007 12.68725 -6.0467005C 13.12475 -5.6599803 13.99975 -5.4685802 15.31225 -5.4685802L15.31225 -5.4685802L19.24975 -5.4685802L19.24975 0.00021982193L12.68725 0.00021982193C 9.66385 0.00021982193 7.52315 -0.6286902 6.2653503 -1.8903801C 5.00365 -3.14818 4.37475 -5.28878 4.37475 -8.31228L4.37475 -8.31228L4.37475 -18.45328L0.5778501 -18.45328L0.5778501 -23.92208L4.37475 -23.92208L4.37475 -30.718979L12.031 -30.719z" stroke="none" fill="#000000" fill-rule="nonzero" />
        <path transform="matrix(1 0 0 1 123.68359 691.25)"  d="M27.562 -12.031L27.562 -9.8435L9.671 -9.8435C 9.8585 -8.0505 10.50303 -6.7068005 11.6085 -5.8123C 12.7218 -4.9138603 14.280399 -4.4685 16.2804 -4.4685C 17.882 -4.4685 19.5304 -4.70288 21.2179 -5.1716204C 22.9054 -5.6481805 24.6398 -6.3747206 26.421 -7.34352L26.421 -7.34352L26.421 -1.45292C 24.616299 -0.76541996 22.8116 -0.24982 20.9991 0.093980074C 19.1866 0.44554007 17.378 0.6252301 15.5772 0.6252301C 11.241301 0.6252301 7.8740997 -0.47246993 5.4681997 -2.67167C 3.0697997 -4.8786697 1.8743997 -7.9685698 1.8743997 -11.93727C 1.8743997 -15.84347 3.0501995 -18.90997 5.4055996 -21.14037C 7.7689 -23.37867 11.014999 -24.49977 15.139999 -24.49977C 18.8978 -24.49977 21.9095 -23.36307 24.1712 -21.093569C 26.429 -18.83187 27.5618 -15.812368 27.5618 -12.031069L27.5618 -12.031069L27.562 -12.031zM19.7026 -14.562201C 19.7026 -16.019201 19.272911 -17.191101 18.4214 -18.0778C 17.57765 -18.97233 16.4722 -19.4216 15.1089 -19.4216C 13.6167 -19.4216 12.4097 -19.00363 11.4839 -18.1716C 10.56593 -17.33566 9.9917 -16.1325 9.7651005 -14.562201z" stroke="none" fill="#000000" fill-rule="nonzero" />
        <path transform="matrix(1 0 0 1 123.68359 691.25)"  d="M27.562 -12.031L27.562 -9.8435L9.671 -9.8435C 9.8585 -8.0505 10.50303 -6.7068005 11.6085 -5.8123C 12.7218 -4.9138603 14.280399 -4.4685 16.2804 -4.4685C 17.882 -4.4685 19.5304 -4.70288 21.2179 -5.1716204C 22.9054 -5.6481805 24.6398 -6.3747206 26.421 -7.34352L26.421 -7.34352L26.421 -1.45292C 24.616299 -0.76541996 22.8116 -0.24982 20.9991 0.093980074C 19.1866 0.44554007 17.378 0.6252301 15.5772 0.6252301C 11.241301 0.6252301 7.8740997 -0.47246993 5.4681997 -2.67167C 3.0697997 -4.8786697 1.8743997 -7.9685698 1.8743997 -11.93727C 1.8743997 -15.84347 3.0501995 -18.90997 5.4055996 -21.14037C 7.7689 -23.37867 11.014999 -24.49977 15.139999 -24.49977C 18.8978 -24.49977 21.9095 -23.36307 24.1712 -21.093569C 26.429 -18.83187 27.5618 -15.812368 27.5618 -12.031069L27.5618 -12.031069L27.562 -12.031zM19.7026 -14.562201C 19.7026 -16.019201 19.272911 -17.191101 18.4214 -18.0778C 17.57765 -18.97233 16.4722 -19.4216 15.1089 -19.4216C 13.6167 -19.4216 12.4097 -19.00363 11.4839 -18.1716C 10.56593 -17.33566 9.9917 -16.1325 9.7651005 -14.562201z" stroke="none" fill="#000000" fill-rule="nonzero" />
        <path transform="matrix(1 0 0 1 233.46484 691.25)"  d="M19.953 -20.422L19.953 -33.234L27.6405 -33.234L27.6405 0L19.953 0L19.953 -3.4531C 18.898298 -2.0468998 17.7382 -1.0156 16.4686 -0.3592999C 15.195199 0.2969501 13.726399 0.6250801 12.062399 0.6250801C 9.113199 0.6250801 6.691299 -0.5468199 4.7967987 -2.8905199C 2.9100986 -5.2343197 1.9686987 -8.24992 1.9686987 -11.93742C 1.9686987 -15.62492 2.9101088 -18.64052 4.7967987 -20.98432C 6.6912985 -23.32812 9.113199 -24.49992 12.062399 -24.49992C 13.718599 -24.49992 15.179599 -24.16398 16.453 -23.49992C 17.7342 -22.84367 18.8983 -21.81632 19.953 -20.42182L19.953 -20.42182L19.953 -20.422zM14.906099 -4.9380007C 16.5506 -4.9380007 17.8006 -5.5356607 18.6561 -6.7349005C 19.519379 -7.9302006 19.953 -9.6646 19.953 -11.938001C 19.953 -14.2192 19.51941 -15.9575 18.6561 -17.156801C 17.800629 -18.3521 16.5506 -18.953701 14.906099 -18.953701C 13.281099 -18.953701 12.035 -18.35214 11.1717 -17.156801C 10.31623 -15.957602 9.890499 -14.219301 9.890499 -11.938002C 9.890499 -9.664601 10.316279 -7.9302015 11.1717 -6.7349014C 12.03498 -5.5357013 13.281099 -4.9380016 14.906099 -4.9380016z" stroke="none" fill="#000000" fill-rule="nonzero" />
        <path transform="matrix(1 0 0 1 233.46484 691.25)"  d="M19.953 -20.422L19.953 -33.234L27.6405 -33.234L27.6405 0L19.953 0L19.953 -3.4531C 18.898298 -2.0468998 17.7382 -1.0156 16.4686 -0.3592999C 15.195199 0.2969501 13.726399 0.6250801 12.062399 0.6250801C 9.113199 0.6250801 6.691299 -0.5468199 4.7967987 -2.8905199C 2.9100986 -5.2343197 1.9686987 -8.24992 1.9686987 -11.93742C 1.9686987 -15.62492 2.9101088 -18.64052 4.7967987 -20.98432C 6.6912985 -23.32812 9.113199 -24.49992 12.062399 -24.49992C 13.718599 -24.49992 15.179599 -24.16398 16.453 -23.49992C 17.7342 -22.84367 18.8983 -21.81632 19.953 -20.42182L19.953 -20.42182L19.953 -20.422zM14.906099 -4.9380007C 16.5506 -4.9380007 17.8006 -5.5356607 18.6561 -6.7349005C 19.519379 -7.9302006 19.953 -9.6646 19.953 -11.938001C 19.953 -14.2192 19.51941 -15.9575 18.6561 -17.156801C 17.800629 -18.3521 16.5506 -18.953701 14.906099 -18.953701C 13.281099 -18.953701 12.035 -18.35214 11.1717 -17.156801C 10.31623 -15.957602 9.890499 -14.219301 9.890499 -11.938002C 9.890499 -9.664601 10.316279 -7.9302015 11.1717 -6.7349014C 12.03498 -5.5357013 13.281099 -4.9380016 14.906099 -4.9380016z" stroke="none" fill="#000000" fill-rule="nonzero" />
        <path transform="matrix(1 0 0 1 280.01172 691.25)"  d="M16.406 -4.9375C 18.0388 -4.9375 19.2888 -5.53516 20.156 -6.7344C 21.01928 -7.9297 21.4529 -9.6641 21.4529 -11.9375C 21.4529 -14.2187 21.01931 -15.957 20.156 -17.1563C 19.28881 -18.351599 18.0388 -18.9532 16.406 -18.9532C 14.7693 -18.9532 13.5154 -18.347729 12.6404 -17.1407C 11.7654 -15.9415 11.3279 -14.2071 11.3279 -11.937599C 11.3279 -9.6758995 11.7654 -7.941499 12.6404 -6.734499C 13.5154 -5.535299 14.7693 -4.937599 16.406 -4.937599L16.406 -4.937599L16.406 -4.9375zM11.3279 -20.421501C 12.3787 -21.816002 13.5467 -22.843401 14.8279 -23.499601C 16.1091 -24.163662 17.5818 -24.499601 19.2498 -24.499601C 22.195099 -24.499601 24.617 -23.327702 26.5154 -20.984001C 28.4099 -18.640202 29.3592 -15.624601 29.3592 -11.937101C 29.3592 -8.249601 28.409979 -5.234001 26.5154 -2.8902016C 24.617 -0.5464015 22.195099 0.6253984 19.2498 0.6253984C 17.5818 0.6253984 16.1092 0.2894584 14.8279 -0.3746016C 13.5466 -1.0386616 12.3787 -2.0660017 11.3279 -3.4527016L11.3279 -3.4527016L11.3279 0.00039839745L3.6717 0.00039839745L3.6717 -33.233604L11.3279 -33.233604z" stroke="none" fill="#000000" fill-rule="nonzero" />
        <path transform="matrix(1 0 0 1 280.01172 691.25)"  d="M16.406 -4.9375C 18.0388 -4.9375 19.2888 -5.53516 20.156 -6.7344C 21.01928 -7.9297 21.4529 -9.6641 21.4529 -11.9375C 21.4529 -14.2187 21.01931 -15.957 20.156 -17.1563C 19.28881 -18.351599 18.0388 -18.9532 16.406 -18.9532C 14.7693 -18.9532 13.5154 -18.347729 12.6404 -17.1407C 11.7654 -15.9415 11.3279 -14.2071 11.3279 -11.937599C 11.3279 -9.6758995 11.7654 -7.941499 12.6404 -6.734499C 13.5154 -5.535299 14.7693 -4.937599 16.406 -4.937599L16.406 -4.937599L16.406 -4.9375zM11.3279 -20.421501C 12.3787 -21.816002 13.5467 -22.843401 14.8279 -23.499601C 16.1091 -24.163662 17.5818 -24.499601 19.2498 -24.499601C 22.195099 -24.499601 24.617 -23.327702 26.5154 -20.984001C 28.4099 -18.640202 29.3592 -15.624601 29.3592 -11.937101C 29.3592 -8.249601 28.409979 -5.234001 26.5154 -2.8902016C 24.617 -0.5464015 22.195099 0.6253984 19.2498 0.6253984C 17.5818 0.6253984 16.1092 0.2894584 14.8279 -0.3746016C 13.5466 -1.0386616 12.3787 -2.0660017 11.3279 -3.4527016L11.3279 -3.4527016L11.3279 0.00039839745L3.6717 0.00039839745L3.6717 -33.233604L11.3279 -33.233604z" stroke="none" fill="#000000" fill-rule="nonzero" />
        <path transform="matrix(1 0 0 1 311.32812 691.25)"  d="M0.53125 -23.922L8.18745 -23.922L14.60935 -7.6880016L20.07815 -23.922L27.73435 -23.922L17.67235 2.2659988C 16.66065 4.9300985 15.47705 6.7893987 14.12545 7.844099C 12.781651 8.906599 11.004351 9.437899 8.79735 9.437899L8.79735 9.437899L4.37545 9.437899L4.37545 4.4222984L6.7660503 4.4222984C 8.066851 4.4222984 9.00825 4.2113585 9.594151 3.7972984C 10.187901 3.3910484 10.64885 2.6488986 10.984751 1.5784984L10.984751 1.5784984L11.187871 0.92224836L0.53125 -23.922z" stroke="none" fill="#000000" fill-rule="nonzero" />
        <path transform="matrix(1 0 0 1 311.32812 691.25)"  d="M0.53125 -23.922L8.18745 -23.922L14.60935 -7.6880016L20.07815 -23.922L27.73435 -23.922L17.67235 2.2659988C 16.66065 4.9300985 15.47705 6.7893987 14.12545 7.844099C 12.781651 8.906599 11.004351 9.437899 8.79735 9.437899L8.79735 9.437899L4.37545 9.437899L4.37545 4.4222984L6.7660503 4.4222984C 8.066851 4.4222984 9.00825 4.2113585 9.594151 3.7972984C 10.187901 3.3910484 10.64885 2.6488986 10.984751 1.5784984L10.984751 1.5784984L11.187871 0.92224836L0.53125 -23.922z" stroke="none" fill="#000000" fill-rule="nonzero" />
        <path transform="matrix(1 0 0 1 355.07812 691.25)"  d="M25.844 -19.953C 26.81275 -21.4296 27.9612 -22.5546 29.2971 -23.328C 30.6291 -24.10925 32.094 -24.499899 33.6877 -24.499899C 36.4377 -24.499899 38.531498 -23.648338 39.9689 -21.953C 41.4064 -20.2655 42.1251 -17.8007 42.1251 -14.562399L42.1251 -14.562399L42.1251 -0.00039863586L34.4376 -0.00039863586L34.4376 -12.4693985C 34.44541 -12.6568985 34.45713 -12.848309 34.46885 -13.047519C 34.47666 -13.242828 34.484474 -13.5318985 34.484474 -13.9068985C 34.484474 -15.602199 34.234474 -16.832699 33.734474 -17.594398C 33.234474 -18.35221 32.425873 -18.734999 31.312574 -18.734999C 29.863375 -18.734999 28.742275 -18.133438 27.953175 -16.938099C 27.160204 -15.738899 26.750074 -14.008399 26.718775 -11.750599L26.718775 -11.750599L26.718775 -0.00059890747L19.031275 -0.00059890747L19.031275 -12.469599C 19.031275 -15.125799 18.800804 -16.8329 18.343775 -17.594599C 17.894554 -18.35241 17.085976 -18.735199 15.921875 -18.735199C 14.453075 -18.735199 13.316375 -18.129728 12.515675 -16.922699C 11.722705 -15.723499 11.328175 -14.004699 11.328175 -11.766499L11.328175 -11.766499L11.328175 -0.00049877167L3.6250744 -0.00049877167L3.6250744 -23.9225L11.328175 -23.9225L11.328175 -20.4225C 12.265675 -21.774101 13.343775 -22.7897 14.562574 -23.4694C 15.781374 -24.1569 17.117275 -24.5006 18.578175 -24.5006C 20.234375 -24.5006 21.691475 -24.09826 22.953175 -23.2975C 24.222675 -22.50453 25.187574 -21.3913 25.843775 -19.953701L25.843775 -19.953701L25.844 -19.953z" stroke="none" fill="#000000" fill-rule="nonzero" />
        <path transform="matrix(1 0 0 1 355.07812 691.25)"  d="M25.844 -19.953C 26.81275 -21.4296 27.9612 -22.5546 29.2971 -23.328C 30.6291 -24.10925 32.094 -24.499899 33.6877 -24.499899C 36.4377 -24.499899 38.531498 -23.648338 39.9689 -21.953C 41.4064 -20.2655 42.1251 -17.8007 42.1251 -14.562399L42.1251 -14.562399L42.1251 -0.00039863586L34.4376 -0.00039863586L34.4376 -12.4693985C 34.44541 -12.6568985 34.45713 -12.848309 34.46885 -13.047519C 34.47666 -13.242828 34.484474 -13.5318985 34.484474 -13.9068985C 34.484474 -15.602199 34.234474 -16.832699 33.734474 -17.594398C 33.234474 -18.35221 32.425873 -18.734999 31.312574 -18.734999C 29.863375 -18.734999 28.742275 -18.133438 27.953175 -16.938099C 27.160204 -15.738899 26.750074 -14.008399 26.718775 -11.750599L26.718775 -11.750599L26.718775 -0.00059890747L19.031275 -0.00059890747L19.031275 -12.469599C 19.031275 -15.125799 18.800804 -16.8329 18.343775 -17.594599C 17.894554 -18.35241 17.085976 -18.735199 15.921875 -18.735199C 14.453075 -18.735199 13.316375 -18.129728 12.515675 -16.922699C 11.722705 -15.723499 11.328175 -14.004699 11.328175 -11.766499L11.328175 -11.766499L11.328175 -0.00049877167L3.6250744 -0.00049877167L3.6250744 -23.9225L11.328175 -23.9225L11.328175 -20.4225C 12.265675 -21.774101 13.343775 -22.7897 14.562574 -23.4694C 15.781374 -24.1569 17.117275 -24.5006 18.578175 -24.5006C 20.234375 -24.5006 21.691475 -24.09826 22.953175 -23.2975C 24.222675 -22.50453 25.187574 -21.3913 25.843775 -19.953701L25.843775 -19.953701L25.844 -19.953z" stroke="none" fill="#000000" fill-rule="nonzero" />
        <path transform="matrix(1 0 0 1 400.66797 691.25)"  d="M3.6719 -23.922L11.3281 -23.922L11.3281 0L3.6719003 0L3.6719 -23.922zM3.6719 -33.2345L11.3281 -33.2345L11.3281 -27.000101L3.6719003 -27.000101z" stroke="none" fill="#000000" fill-rule="nonzero" />
        <path transform="matrix(1 0 0 1 400.66797 691.25)"  d="M3.6719 -23.922L11.3281 -23.922L11.3281 0L3.6719003 0L3.6719 -23.922zM3.6719 -33.2345L11.3281 -33.2345L11.3281 -27.000101L3.6719003 -27.000101z" stroke="none" fill="#000000" fill-rule="nonzero" />
        <path transform="matrix(1 0 0 1 355.07812 691.25)"  d="M25.844 -19.953C 26.81275 -21.4296 27.9612 -22.5546 29.2971 -23.328C 30.6291 -24.10925 32.094 -24.499899 33.6877 -24.499899C 36.4377 -24.499899 38.531498 -23.648338 39.9689 -21.953C 41.4064 -20.2655 42.1251 -17.8007 42.1251 -14.562399L42.1251 -14.562399L42.1251 -0.00039863586L34.4376 -0.00039863586L34.4376 -12.4693985C 34.44541 -12.6568985 34.45713 -12.848309 34.46885 -13.047519C 34.47666 -13.242828 34.484474 -13.5318985 34.484474 -13.9068985C 34.484474 -15.602199 34.234474 -16.832699 33.734474 -17.594398C 33.234474 -18.35221 32.425873 -18.734999 31.312574 -18.734999C 29.863375 -18.734999 28.742275 -18.133438 27.953175 -16.938099C 27.160204 -15.738899 26.750074 -14.008399 26.718775 -11.750599L26.718775 -11.750599L26.718775 -0.00059890747L19.031275 -0.00059890747L19.031275 -12.469599C 19.031275 -15.125799 18.800804 -16.8329 18.343775 -17.594599C 17.894554 -18.35241 17.085976 -18.735199 15.921875 -18.735199C 14.453075 -18.735199 13.316375 -18.129728 12.515675 -16.922699C 11.722705 -15.723499 11.328175 -14.004699 11.328175 -11.766499L11.328175 -11.766499L11.328175 -0.00049877167L3.6250744 -0.00049877167L3.6250744 -23.9225L11.328175 -23.9225L11.328175 -20.4225C 12.265675 -21.774101 13.343775 -22.7897 14.562574 -23.4694C 15.781374 -24.1569 17.117275 -24.5006 18.578175 -24.5006C 20.234375 -24.5006 21.691475 -24.09826 22.953175 -23.2975C 24.222675 -22.50453 25.187574 -21.3913 25.843775 -19.953701L25.843775 -19.953701L25.844 -19.953z" stroke="none" fill="#000000" fill-rule="nonzero" />
        <path transform="matrix(1 0 0 1 355.07812 691.25)"  d="M25.844 -19.953C 26.81275 -21.4296 27.9612 -22.5546 29.2971 -23.328C 30.6291 -24.10925 32.094 -24.499899 33.6877 -24.499899C 36.4377 -24.499899 38.531498 -23.648338 39.9689 -21.953C 41.4064 -20.2655 42.1251 -17.8007 42.1251 -14.562399L42.1251 -14.562399L42.1251 -0.00039863586L34.4376 -0.00039863586L34.4376 -12.4693985C 34.44541 -12.6568985 34.45713 -12.848309 34.46885 -13.047519C 34.47666 -13.242828 34.484474 -13.5318985 34.484474 -13.9068985C 34.484474 -15.602199 34.234474 -16.832699 33.734474 -17.594398C 33.234474 -18.35221 32.425873 -18.734999 31.312574 -18.734999C 29.863375 -18.734999 28.742275 -18.133438 27.953175 -16.938099C 27.160204 -15.738899 26.750074 -14.008399 26.718775 -11.750599L26.718775 -11.750599L26.718775 -0.00059890747L19.031275 -0.00059890747L19.031275 -12.469599C 19.031275 -15.125799 18.800804 -16.8329 18.343775 -17.594599C 17.894554 -18.35241 17.085976 -18.735199 15.921875 -18.735199C 14.453075 -18.735199 13.316375 -18.129728 12.515675 -16.922699C 11.722705 -15.723499 11.328175 -14.004699 11.328175 -11.766499L11.328175 -11.766499L11.328175 -0.00049877167L3.6250744 -0.00049877167L3.6250744 -23.9225L11.328175 -23.9225L11.328175 -20.4225C 12.265675 -21.774101 13.343775 -22.7897 14.562574 -23.4694C 15.781374 -24.1569 17.117275 -24.5006 18.578175 -24.5006C 20.234375 -24.5006 21.691475 -24.09826 22.953175 -23.2975C 24.222675 -22.50453 25.187574 -21.3913 25.843775 -19.953701L25.843775 -19.953701L25.844 -19.953z" stroke="none" fill="#000000" fill-rule="nonzero" />
        <path transform="matrix(1 0 0 1 476.48047 691.25)"  d="M22.359 -23.172L22.359 -17.375101C 20.7223 -18.05088 19.1442 -18.562601 17.6246 -18.906301C 16.1012 -19.250051 14.663699 -19.42192 13.312099 -19.42192C 11.851199 -19.42192 10.769099 -19.23833 10.062099 -18.87504C 9.36288 -18.50785 9.0152 -17.95316 9.0152 -17.20314C 9.0152 -16.58595 9.28082 -16.11334 9.812079 -15.78124C 10.343329 -15.457021 11.30038 -15.21874 12.687079 -15.06249L12.687079 -15.06249L14.030879 -14.87499C 17.944979 -14.37499 20.581678 -13.550791 21.937078 -12.406191C 23.28868 -11.269491 23.968279 -9.484291 23.968279 -7.046791C 23.968279 -4.492091 23.022968 -2.577991 21.140179 -1.2967911C 19.265179 -0.015591025 16.46048 0.62510896 12.733978 0.62510896C 11.148078 0.62510896 9.515179 0.50010896 7.8277783 0.25010896C 6.140378 0.00010895729 4.405878 -0.37489104 2.6246781 -0.87489104L2.6246781 -0.87489104L2.6246781 -6.6873913C 4.1441784 -5.9452014 5.7066784 -5.3904915 7.312178 -5.0154915C 8.913778 -4.6483016 10.546578 -4.4686117 12.202778 -4.4686117C 13.691078 -4.4686117 14.812178 -4.671732 15.562178 -5.0779915C 16.319988 -5.4920516 16.702778 -6.1091914 16.702778 -6.9217916C 16.702778 -7.6092916 16.441057 -8.117091 15.921528 -8.4529915C 15.3980875 -8.785022 14.362928 -9.0467415 12.812128 -9.2342415L12.812128 -9.2342415L11.468328 -9.406121C 8.062128 -9.831902 5.6753283 -10.617022 4.3121285 -11.765521C 2.9449286 -12.921721 2.2652285 -14.675721 2.2652285 -17.03112C 2.2652285 -19.56232 3.1324186 -21.43732 4.8746285 -22.65612C 6.6129284 -23.88272 9.273028 -24.49992 12.859028 -24.49992C 14.265228 -24.49992 15.741828 -24.39054 17.296528 -24.1718C 18.847328 -23.960861 20.534828 -23.62883 22.359028 -23.1718L22.359028 -23.1718L22.359 -23.172z" stroke="none" fill="#000000" fill-rule="nonzero" />
        <path transform="matrix(1 0 0 1 476.48047 691.25)"  d="M22.359 -23.172L22.359 -17.375101C 20.7223 -18.05088 19.1442 -18.562601 17.6246 -18.906301C 16.1012 -19.250051 14.663699 -19.42192 13.312099 -19.42192C 11.851199 -19.42192 10.769099 -19.23833 10.062099 -18.87504C 9.36288 -18.50785 9.0152 -17.95316 9.0152 -17.20314C 9.0152 -16.58595 9.28082 -16.11334 9.812079 -15.78124C 10.343329 -15.457021 11.30038 -15.21874 12.687079 -15.06249L12.687079 -15.06249L14.030879 -14.87499C 17.944979 -14.37499 20.581678 -13.550791 21.937078 -12.406191C 23.28868 -11.269491 23.968279 -9.484291 23.968279 -7.046791C 23.968279 -4.492091 23.022968 -2.577991 21.140179 -1.2967911C 19.265179 -0.015591025 16.46048 0.62510896 12.733978 0.62510896C 11.148078 0.62510896 9.515179 0.50010896 7.8277783 0.25010896C 6.140378 0.00010895729 4.405878 -0.37489104 2.6246781 -0.87489104L2.6246781 -0.87489104L2.6246781 -6.6873913C 4.1441784 -5.9452014 5.7066784 -5.3904915 7.312178 -5.0154915C 8.913778 -4.6483016 10.546578 -4.4686117 12.202778 -4.4686117C 13.691078 -4.4686117 14.812178 -4.671732 15.562178 -5.0779915C 16.319988 -5.4920516 16.702778 -6.1091914 16.702778 -6.9217916C 16.702778 -7.6092916 16.441057 -8.117091 15.921528 -8.4529915C 15.3980875 -8.785022 14.362928 -9.0467415 12.812128 -9.2342415L12.812128 -9.2342415L11.468328 -9.406121C 8.062128 -9.831902 5.6753283 -10.617022 4.3121285 -11.765521C 2.9449286 -12.921721 2.2652285 -14.675721 2.2652285 -17.03112C 2.2652285 -19.56232 3.1324186 -21.43732 4.8746285 -22.65612C 6.6129284 -23.88272 9.273028 -24.49992 12.859028 -24.49992C 14.265228 -24.49992 15.741828 -24.39054 17.296528 -24.1718C 18.847328 -23.960861 20.534828 -23.62883 22.359028 -23.1718L22.359028 -23.1718L22.359 -23.172z" stroke="none" fill="#000000" fill-rule="nonzero" />
        <path transform="matrix(1 0 0 1 182.8789 691.25)"  d="M12.031 -30.719L12.031 -23.9221L19.906 -23.9221L19.906 -18.4533L12.031 -18.4533L12.031 -8.312301C 12.031 -7.195101 12.24975 -6.4412007 12.68725 -6.0467005C 13.12475 -5.6599803 13.99975 -5.4685802 15.31225 -5.4685802L15.31225 -5.4685802L19.24975 -5.4685802L19.24975 0.00021982193L12.68725 0.00021982193C 9.66385 0.00021982193 7.52315 -0.6286902 6.2653503 -1.8903801C 5.00365 -3.14818 4.37475 -5.28878 4.37475 -8.31228L4.37475 -8.31228L4.37475 -18.45328L0.5778501 -18.45328L0.5778501 -23.92208L4.37475 -23.92208L4.37475 -30.718979L12.031 -30.719z" stroke="none" fill="#000000" fill-rule="nonzero" />
        <path transform="matrix(1 0 0 1 182.8789 691.25)"  d="M12.031 -30.719L12.031 -23.9221L19.906 -23.9221L19.906 -18.4533L12.031 -18.4533L12.031 -8.312301C 12.031 -7.195101 12.24975 -6.4412007 12.68725 -6.0467005C 13.12475 -5.6599803 13.99975 -5.4685802 15.31225 -5.4685802L15.31225 -5.4685802L19.24975 -5.4685802L19.24975 0.00021982193L12.68725 0.00021982193C 9.66385 0.00021982193 7.52315 -0.6286902 6.2653503 -1.8903801C 5.00365 -3.14818 4.37475 -5.28878 4.37475 -8.31228L4.37475 -8.31228L4.37475 -18.45328L0.5778501 -18.45328L0.5778501 -23.92208L4.37475 -23.92208L4.37475 -30.718979L12.031 -30.719z" stroke="none" fill="#000000" fill-rule="nonzero" />
        <path transform="matrix(1 0 0 1 523.4375 691.25)"  d="M3.4219 -9.3125L3.4219 -23.921501L11.1094 -23.921501L11.1094 -21.530901C 11.1094 -20.237902 11.097681 -18.612902 11.07815 -16.655901C 11.066431 -14.695001 11.062525 -13.390301 11.062525 -12.734001C 11.062525 -10.804301 11.1094 -9.421501 11.203145 -8.577801C 11.304705 -7.7340508 11.484395 -7.116901 11.734395 -6.7340007C 12.046895 -6.2340007 12.453145 -5.8472805 12.953195 -5.5778008C 13.461004 -5.304361 14.046994 -5.1715508 14.703195 -5.1715508C 16.296995 -5.1715508 17.546995 -5.7809305 18.453194 -6.999651C 19.367254 -8.226251 19.828194 -9.929351 19.828194 -12.109051L19.828194 -12.109051L19.828194 -23.921051L27.468794 -23.921051L27.468794 0.0009498596L19.828194 0.0009498596L19.828194 -3.45215C 18.671993 -2.0654502 17.445393 -1.0380502 16.156294 -0.37405014C 14.875093 0.29000986 13.457094 0.62594986 11.906294 0.62594986C 9.132894 0.62594986 7.023494 -0.22171015 5.5781937 -1.9209502C 4.1406937 -3.61625 3.4219937 -6.08115 3.4219937 -9.31155L3.4219937 -9.31155L3.4219 -9.3125z" stroke="none" fill="#000000" fill-rule="nonzero" />
        <path transform="matrix(1 0 0 1 523.4375 691.25)"  d="M3.4219 -9.3125L3.4219 -23.921501L11.1094 -23.921501L11.1094 -21.530901C 11.1094 -20.237902 11.097681 -18.612902 11.07815 -16.655901C 11.066431 -14.695001 11.062525 -13.390301 11.062525 -12.734001C 11.062525 -10.804301 11.1094 -9.421501 11.203145 -8.577801C 11.304705 -7.7340508 11.484395 -7.116901 11.734395 -6.7340007C 12.046895 -6.2340007 12.453145 -5.8472805 12.953195 -5.5778008C 13.461004 -5.304361 14.046994 -5.1715508 14.703195 -5.1715508C 16.296995 -5.1715508 17.546995 -5.7809305 18.453194 -6.999651C 19.367254 -8.226251 19.828194 -9.929351 19.828194 -12.109051L19.828194 -12.109051L19.828194 -23.921051L27.468794 -23.921051L27.468794 0.0009498596L19.828194 0.0009498596L19.828194 -3.45215C 18.671993 -2.0654502 17.445393 -1.0380502 16.156294 -0.37405014C 14.875093 0.29000986 13.457094 0.62594986 11.906294 0.62594986C 9.132894 0.62594986 7.023494 -0.22171015 5.5781937 -1.9209502C 4.1406937 -3.61625 3.4219937 -6.08115 3.4219937 -9.31155L3.4219937 -9.31155L3.4219 -9.3125z" stroke="none" fill="#000000" fill-rule="nonzero" />
        <path transform="matrix(1 0 0 1 233.46484 691.25)"  d="M19.953 -20.422L19.953 -33.234L27.6405 -33.234L27.6405 0L19.953 0L19.953 -3.4531C 18.898298 -2.0468998 17.7382 -1.0156 16.4686 -0.3592999C 15.195199 0.2969501 13.726399 0.6250801 12.062399 0.6250801C 9.113199 0.6250801 6.691299 -0.5468199 4.7967987 -2.8905199C 2.9100986 -5.2343197 1.9686987 -8.24992 1.9686987 -11.93742C 1.9686987 -15.62492 2.9101088 -18.64052 4.7967987 -20.98432C 6.6912985 -23.32812 9.113199 -24.49992 12.062399 -24.49992C 13.718599 -24.49992 15.179599 -24.16398 16.453 -23.49992C 17.7342 -22.84367 18.8983 -21.81632 19.953 -20.42182L19.953 -20.42182L19.953 -20.422zM14.906099 -4.9380007C 16.5506 -4.9380007 17.8006 -5.5356607 18.6561 -6.7349005C 19.519379 -7.9302006 19.953 -9.6646 19.953 -11.938001C 19.953 -14.2192 19.51941 -15.9575 18.6561 -17.156801C 17.800629 -18.3521 16.5506 -18.953701 14.906099 -18.953701C 13.281099 -18.953701 12.035 -18.35214 11.1717 -17.156801C 10.31623 -15.957602 9.890499 -14.219301 9.890499 -11.938002C 9.890499 -9.664601 10.316279 -7.9302015 11.1717 -6.7349014C 12.03498 -5.5357013 13.281099 -4.9380016 14.906099 -4.9380016z" stroke="none" fill="#000000" fill-rule="nonzero" />
        <path transform="matrix(1 0 0 1 233.46484 691.25)"  d="M19.953 -20.422L19.953 -33.234L27.6405 -33.234L27.6405 0L19.953 0L19.953 -3.4531C 18.898298 -2.0468998 17.7382 -1.0156 16.4686 -0.3592999C 15.195199 0.2969501 13.726399 0.6250801 12.062399 0.6250801C 9.113199 0.6250801 6.691299 -0.5468199 4.7967987 -2.8905199C 2.9100986 -5.2343197 1.9686987 -8.24992 1.9686987 -11.93742C 1.9686987 -15.62492 2.9101088 -18.64052 4.7967987 -20.98432C 6.6912985 -23.32812 9.113199 -24.49992 12.062399 -24.49992C 13.718599 -24.49992 15.179599 -24.16398 16.453 -23.49992C 17.7342 -22.84367 18.8983 -21.81632 19.953 -20.42182L19.953 -20.42182L19.953 -20.422zM14.906099 -4.9380007C 16.5506 -4.9380007 17.8006 -5.5356607 18.6561 -6.7349005C 19.519379 -7.9302006 19.953 -9.6646 19.953 -11.938001C 19.953 -14.2192 19.51941 -15.9575 18.6561 -17.156801C 17.800629 -18.3521 16.5506 -18.953701 14.906099 -18.953701C 13.281099 -18.953701 12.035 -18.35214 11.1717 -17.156801C 10.31623 -15.957602 9.890499 -14.219301 9.890499 -11.938002C 9.890499 -9.664601 10.316279 -7.9302015 11.1717 -6.7349014C 12.03498 -5.5357013 13.281099 -4.9380016 14.906099 -4.9380016z" stroke="none" fill="#000000" fill-rule="nonzero" />
        <path transform="matrix(1 0 0 1 400.66797 691.25)"  d="M3.6719 -23.922L11.3281 -23.922L11.3281 0L3.6719003 0L3.6719 -23.922zM3.6719 -33.2345L11.3281 -33.2345L11.3281 -27.000101L3.6719003 -27.000101z" stroke="none" fill="#000000" fill-rule="nonzero" />
        <path transform="matrix(1 0 0 1 400.66797 691.25)"  d="M3.6719 -23.922L11.3281 -23.922L11.3281 0L3.6719003 0L3.6719 -23.922zM3.6719 -33.2345L11.3281 -33.2345L11.3281 -27.000101L3.6719003 -27.000101z" stroke="none" fill="#000000" fill-rule="nonzero" />
        <path transform="matrix(1 0 0 1 600.89453 691.25)"  d="M15.062 -19.031C 13.362801 -19.031 12.065901 -18.42162 11.1714 -17.2029C 10.28468 -15.9841 9.8433 -14.2263 9.8433 -11.9373C 9.8433 -9.6442995 10.28471 -7.8904 11.1714 -6.6716995C 12.06593 -5.4528995 13.362801 -4.8435993 15.062 -4.8435993C 16.7261 -4.8435993 17.9995 -5.452979 18.8745 -6.6716995C 19.75731 -7.8904996 20.2026 -9.6444 20.2026 -11.9373C 20.2026 -14.226399 19.75729 -15.9842 18.8745 -17.2029C 17.9995 -18.4217 16.7261 -19.031 15.062 -19.031zM15.062 -24.4998C 19.1753 -24.4998 22.3901 -23.3904 24.7026 -21.1717C 27.0151 -18.953 28.1714 -15.8748 28.1714 -11.9373C 28.1714 -8.0076 27.0152 -4.9294996 24.7026 -2.7029C 22.3901 -0.48409986 19.1753 0.62520003 15.062 0.62520003C 10.925301 0.62520003 7.6909003 -0.4842 5.3589 -2.7029C 3.0347002 -4.9294996 1.8745 -8.0076 1.8745 -11.9373C 1.8745 -15.8748 3.0347 -18.9529 5.3589 -21.1717C 7.6909 -23.3905 10.925301 -24.4998 15.062 -24.4998z" stroke="none" fill="#000000" fill-rule="nonzero" />
        <path transform="matrix(1 0 0 1 600.89453 691.25)"  d="M15.062 -19.031C 13.362801 -19.031 12.065901 -18.42162 11.1714 -17.2029C 10.28468 -15.9841 9.8433 -14.2263 9.8433 -11.9373C 9.8433 -9.6442995 10.28471 -7.8904 11.1714 -6.6716995C 12.06593 -5.4528995 13.362801 -4.8435993 15.062 -4.8435993C 16.7261 -4.8435993 17.9995 -5.452979 18.8745 -6.6716995C 19.75731 -7.8904996 20.2026 -9.6444 20.2026 -11.9373C 20.2026 -14.226399 19.75729 -15.9842 18.8745 -17.2029C 17.9995 -18.4217 16.7261 -19.031 15.062 -19.031zM15.062 -24.4998C 19.1753 -24.4998 22.3901 -23.3904 24.7026 -21.1717C 27.0151 -18.953 28.1714 -15.8748 28.1714 -11.9373C 28.1714 -8.0076 27.0152 -4.9294996 24.7026 -2.7029C 22.3901 -0.48409986 19.1753 0.62520003 15.062 0.62520003C 10.925301 0.62520003 7.6909003 -0.4842 5.3589 -2.7029C 3.0347002 -4.9294996 1.8745 -8.0076 1.8745 -11.9373C 1.8745 -15.8748 3.0347 -18.9529 5.3589 -21.1717C 7.6909 -23.3905 10.925301 -24.4998 15.062 -24.4998z" stroke="none" fill="#000000" fill-rule="nonzero" />
	</g>
</g>
</svg>